<svg width="512" height="485" viewBox="0 0 512 485" fill="none" xmlns="http://www.w3.org/2000/svg">
<g clip-path="url(#clip0_20906_100572)">
<path d="M180.761 147.76C182.315 150.306 184.626 152.302 187.371 153.47C188.171 153.8 189.061 154.17 190.031 154.55C191.767 155.248 193.329 156.316 194.609 157.681C195.889 159.045 196.855 160.673 197.441 162.45C197.601 162.96 197.771 163.45 197.931 163.94C200.656 172.039 205.488 179.267 211.931 184.88C221.044 192.501 230.67 199.488 240.741 205.79C241.578 206.317 242.541 206.611 243.53 206.64C244.518 206.669 245.497 206.432 246.363 205.954C247.229 205.476 247.951 204.774 248.454 203.922C248.957 203.07 249.221 202.099 249.221 201.11V30.9297C249.222 29.9885 249.022 29.058 248.634 28.2003C248.246 27.3427 247.68 26.5778 246.973 25.9568C246.265 25.3357 245.434 24.8729 244.533 24.5992C243.633 24.3255 242.684 24.2472 241.751 24.3697C227.271 26.3097 216.091 33.7497 207.751 42.3697C193.8 57.0724 186.248 76.7074 186.751 96.9697C186.791 99.2897 186.868 101.57 186.981 103.81C184.301 104.672 181.818 106.056 179.676 107.883C177.534 109.71 175.774 111.943 174.5 114.453C173.225 116.963 172.46 119.701 172.249 122.508C172.038 125.316 172.386 128.137 173.271 130.81C175.106 136.73 177.619 142.417 180.761 147.76ZM224.571 109.16C226.383 109.16 228.154 109.697 229.661 110.704C231.168 111.711 232.342 113.142 233.035 114.817C233.728 116.491 233.908 118.333 233.554 120.11C233.2 121.888 232.327 123.52 231.045 124.8C229.762 126.081 228.129 126.953 226.352 127.305C224.574 127.657 222.732 127.474 221.059 126.78C219.385 126.085 217.955 124.909 216.95 123.401C215.945 121.894 215.409 120.122 215.411 118.31C215.411 117.107 215.648 115.917 216.108 114.806C216.569 113.695 217.244 112.686 218.094 111.836C218.945 110.986 219.955 110.313 221.066 109.853C222.178 109.394 223.369 109.158 224.571 109.16Z" fill="white"/>
<path d="M121.171 484.8H155.671C157.625 484.8 159.5 484.023 160.882 482.641C162.264 481.259 163.041 479.384 163.041 477.43V372C163.037 370.903 162.796 369.82 162.333 368.825C161.87 367.831 161.197 366.949 160.361 366.24C158.921 365.01 157.581 363.78 156.361 362.56C152.901 359.11 157.361 353.56 161.501 356.24C183.711 370.53 203.691 375.24 217.101 376.62C218.62 376.766 220.154 376.593 221.602 376.111C223.051 375.628 224.382 374.848 225.511 373.82C231.165 368.743 237.145 364.039 243.411 359.74C245.187 358.53 246.64 356.904 247.644 355.005C248.648 353.105 249.172 350.988 249.171 348.84V326.66C249.168 325.235 248.865 323.827 248.281 322.528C247.696 321.228 246.845 320.067 245.781 319.12L214.921 291.79C214.136 291.183 213.604 290.306 213.429 289.329C213.255 288.353 213.449 287.346 213.975 286.505C214.501 285.663 215.321 285.047 216.276 284.777C217.23 284.506 218.251 284.6 219.141 285.04L241.501 294.3C242.344 294.648 243.26 294.783 244.168 294.694C245.076 294.604 245.948 294.291 246.706 293.784C247.465 293.277 248.086 292.59 248.516 291.785C248.946 290.981 249.171 290.082 249.171 289.17V233.49C249.174 231.728 248.695 229.999 247.785 228.49C246.876 226.981 245.57 225.75 244.011 224.93C234.231 219.83 224.281 213.55 217.821 209.3C217.123 208.838 216.313 208.574 215.478 208.537C214.642 208.499 213.812 208.689 213.076 209.087C212.34 209.484 211.726 210.074 211.299 210.793C210.871 211.512 210.647 212.333 210.651 213.17L214.231 253.32C214.351 254.325 214.119 255.341 213.572 256.193C213.026 257.045 212.2 257.681 211.236 257.991C210.272 258.301 209.231 258.266 208.29 257.891C207.349 257.517 206.568 256.827 206.081 255.94L202.481 249.38C202.106 248.689 201.583 248.09 200.948 247.628C200.313 247.165 199.583 246.85 198.81 246.705C198.038 246.56 197.243 246.59 196.484 246.791C195.724 246.993 195.02 247.361 194.421 247.87C191.098 250.709 187.619 253.36 184.001 255.81C180.448 258.228 176.537 260.07 172.411 261.27C160.131 264.756 148.551 270.353 138.191 277.81C107.101 299.28 110.791 334.29 112.971 345.69C113.535 348.656 113.816 351.67 113.811 354.69V477.43C113.811 479.383 114.586 481.256 115.966 482.638C117.346 484.019 119.218 484.797 121.171 484.8Z" fill="white"/>
<path d="M212.559 436.74C216.852 439.324 221.579 441.106 226.509 442C234.389 443.51 240.059 442.85 244.039 441.52C245.536 441.02 246.837 440.063 247.759 438.784C248.682 437.504 249.179 435.967 249.179 434.39V381.05C249.177 380.501 249.036 379.961 248.769 379.481C248.503 379.001 248.119 378.596 247.655 378.304C247.19 378.012 246.659 377.842 246.111 377.809C245.562 377.777 245.015 377.884 244.519 378.12C231.849 384.03 219.069 394.27 208.899 403.68C208.234 404.307 207.36 404.667 206.446 404.689C205.531 404.712 204.641 404.396 203.945 403.802C203.249 403.208 202.798 402.378 202.677 401.471C202.556 400.565 202.774 399.645 203.289 398.89C204.849 396.61 206.459 394.4 208.129 392.28C208.459 391.863 208.677 391.369 208.763 390.845C208.849 390.321 208.8 389.783 208.621 389.283C208.442 388.783 208.139 388.337 207.739 387.986C207.34 387.636 206.858 387.393 206.339 387.28C198.345 385.573 190.515 383.17 182.939 380.1L182.139 379.74C181.533 379.473 180.87 379.361 180.209 379.414C179.549 379.467 178.912 379.683 178.356 380.043C177.8 380.403 177.342 380.895 177.023 381.476C176.704 382.056 176.535 382.707 176.529 383.37V477.43C176.528 478.398 176.718 479.357 177.088 480.252C177.458 481.146 178 481.959 178.685 482.644C179.37 483.329 180.183 483.871 181.077 484.241C181.972 484.611 182.931 484.801 183.899 484.8H241.829C243.784 484.8 245.659 484.023 247.041 482.641C248.423 481.259 249.199 479.384 249.199 477.43V457.94C249.195 457.269 249.043 456.607 248.755 456.001C248.466 455.395 248.048 454.86 247.53 454.434C247.012 454.008 246.407 453.7 245.757 453.534C245.107 453.367 244.429 453.345 243.769 453.47C239.199 454.26 232.619 454.36 223.379 452.47C214.859 450.75 209.679 446.62 206.519 442.1C203.999 438.46 208.609 434.32 212.559 436.74Z" fill="white"/>
<path d="M268.159 162.5H277.599C279.827 162.503 282.024 161.976 284.006 160.96C285.989 159.944 287.701 158.47 288.999 156.66L294.899 148.43C296.61 146.059 299.014 144.277 301.779 143.33C307.559 141.428 312.853 138.285 317.289 134.12C318.612 132.813 319.661 131.255 320.376 129.538C321.09 127.821 321.455 125.979 321.449 124.12V79.7097C321.544 67.9461 317.876 56.4603 310.979 46.9297C303.329 36.5797 290.469 26.2297 269.229 24.5497C268.447 24.4919 267.661 24.5962 266.921 24.856C266.181 25.1158 265.503 25.5256 264.928 26.0597C264.354 26.5938 263.896 27.2407 263.583 27.9599C263.27 28.6792 263.109 29.4553 263.109 30.2397V157.41C263.109 158.753 263.64 160.041 264.586 160.995C265.532 161.948 266.816 162.489 268.159 162.5ZM273.759 111.04C276.109 100.66 285.079 93.8397 293.759 95.8197C302.439 97.7997 307.639 107.82 305.289 118.19C302.939 128.56 293.969 135.38 285.289 133.41C276.609 131.44 271.409 121.42 273.759 111V111.04Z" fill="white"/>
<path d="M268.16 208.08C274.629 208.092 280.905 205.874 285.93 201.8C300.16 190.22 311.15 171.8 316.16 162.5C317.31 160.37 319.16 156.88 317.41 153.94C317.015 153.317 316.466 152.806 315.816 152.456C315.167 152.105 314.438 151.928 313.7 151.94C312.133 151.94 310.585 152.285 309.166 152.95C307.748 153.616 306.492 154.585 305.49 155.79L292.75 171.12C291.872 172.174 290.772 173.022 289.53 173.604C288.288 174.187 286.932 174.489 285.56 174.49H270.71C268.684 174.49 266.741 175.295 265.308 176.728C263.875 178.161 263.07 180.104 263.07 182.13V203C263.073 204.348 263.61 205.64 264.565 206.593C265.519 207.545 266.812 208.08 268.16 208.08Z" fill="white"/>
<path d="M270.001 234.68C271.32 234.679 272.613 234.315 273.741 233.63L281.421 228.96C283.014 227.944 284.146 226.345 284.574 224.504C285.002 222.663 284.691 220.729 283.708 219.115C282.725 217.501 281.148 216.337 279.316 215.872C277.485 215.407 275.544 215.679 273.911 216.63L266.241 221.31C264.896 222.128 263.855 223.364 263.279 224.828C262.702 226.293 262.62 227.906 263.047 229.422C263.473 230.937 264.383 232.271 265.639 233.221C266.894 234.17 268.426 234.683 270.001 234.68Z" fill="white"/>
<path d="M271.79 257.09C273.122 257.089 274.428 256.715 275.56 256.01L283.22 251.3C284.027 250.803 284.729 250.152 285.285 249.384C285.841 248.615 286.24 247.745 286.46 246.822C286.679 245.9 286.715 244.943 286.565 244.007C286.415 243.07 286.082 242.173 285.585 241.365C285.088 240.557 284.436 239.856 283.668 239.3C282.9 238.744 282.029 238.345 281.107 238.125C280.184 237.905 279.228 237.87 278.291 238.02C277.355 238.17 276.457 238.503 275.65 239L268 243.73C266.665 244.556 265.635 245.795 265.067 247.258C264.499 248.722 264.424 250.33 264.852 251.841C265.281 253.351 266.19 254.68 267.441 255.628C268.693 256.575 270.22 257.088 271.79 257.09Z" fill="white"/>
<path d="M282.79 260.15C278.027 263.298 273.446 266.713 269.07 270.38C267.699 271.65 266.873 273.402 266.767 275.268C266.662 277.134 267.283 278.968 268.502 280.385C269.721 281.802 271.442 282.691 273.302 282.865C275.163 283.039 277.019 282.486 278.48 281.32C282.401 278.042 286.505 274.987 290.77 272.17C294.075 269.962 297.839 268.536 301.777 267.999C305.715 267.462 309.724 267.828 313.5 269.07C320.552 271.266 327.459 273.904 334.18 276.97L334.52 277.12C335.52 277.53 359.18 287.18 380.04 277.95C381.789 277.175 383.159 275.738 383.848 273.953C384.537 272.169 384.489 270.184 383.715 268.435C382.94 266.686 381.503 265.316 379.718 264.627C377.934 263.937 375.949 263.985 374.2 264.76C359.73 271.17 341.85 264.49 340.2 263.85C332.973 260.557 325.549 257.719 317.97 255.35C312.126 253.428 305.921 252.861 299.826 253.692C293.731 254.524 287.905 256.732 282.79 260.15Z" fill="white"/>
<path d="M322.609 430.51C324.307 430.506 325.949 429.904 327.246 428.809C328.543 427.713 329.412 426.196 329.7 424.523C329.988 422.85 329.677 421.129 328.82 419.663C327.964 418.197 326.618 417.081 325.019 416.51C297.469 406.75 286.09 387.84 281.39 373.69C279.649 368.357 278.778 362.779 278.809 357.17V300.69C278.74 298.823 277.949 297.055 276.604 295.759C275.258 294.463 273.463 293.738 271.594 293.738C269.726 293.738 267.931 294.463 266.585 295.759C265.24 297.055 264.449 298.823 264.38 300.69V357.16C264.349 364.315 265.467 371.428 267.689 378.23C272.369 392.31 285.41 417.77 320.2 430.1C320.974 430.372 321.789 430.511 322.609 430.51Z" fill="white"/>
<path d="M292.719 318.39C294.389 318.54 295.989 318.61 297.529 318.61C321.249 318.61 330.799 301.56 332.529 291.96C332.828 290.101 332.388 288.199 331.304 286.659C330.22 285.119 328.577 284.064 326.726 283.718C324.875 283.373 322.962 283.764 321.395 284.809C319.828 285.853 318.732 287.468 318.339 289.31C317.999 291 314.399 305.87 293.999 304C292.094 303.828 290.198 304.419 288.728 305.645C287.259 306.87 286.337 308.63 286.164 310.535C285.992 312.441 286.583 314.337 287.809 315.806C289.034 317.275 290.794 318.198 292.699 318.37L292.719 318.39Z" fill="white"/>
<path d="M291.641 349.4C295.732 350.432 299.932 350.969 304.151 351C311.038 351.109 317.809 349.215 323.641 345.55C337.321 336.85 340.641 320.88 340.761 320.21C341.079 318.358 340.663 316.455 339.601 314.905C338.538 313.355 336.913 312.28 335.071 311.909C333.229 311.538 331.314 311.9 329.734 312.918C328.155 313.936 327.034 315.529 326.611 317.36C326.611 317.47 324.261 328.13 315.801 333.44C310.461 336.79 303.501 337.44 295.091 335.38C294.167 335.14 293.205 335.086 292.26 335.22C291.314 335.355 290.406 335.676 289.586 336.165C288.766 336.653 288.051 337.3 287.483 338.067C286.914 338.834 286.504 339.706 286.276 340.633C286.047 341.56 286.005 342.523 286.152 343.466C286.299 344.41 286.631 345.314 287.13 346.128C287.629 346.942 288.285 347.648 289.059 348.206C289.834 348.765 290.711 349.164 291.641 349.38V349.4Z" fill="white"/>
<path d="M337.441 353.11C335.644 352.452 333.659 352.534 331.923 353.339C330.187 354.143 328.841 355.604 328.181 357.4C326.181 362.93 323.181 366.5 319.051 368.32C311.261 371.77 301.671 368.01 301.441 367.92C300.565 367.558 299.627 367.371 298.68 367.371C297.733 367.371 296.795 367.558 295.919 367.921C295.044 368.283 294.249 368.815 293.579 369.485C292.909 370.155 292.378 370.95 292.016 371.825C291.653 372.701 291.467 373.639 291.467 374.586C291.467 375.533 291.654 376.471 292.016 377.347C292.379 378.222 292.91 379.017 293.58 379.687C294.25 380.357 295.045 380.888 295.921 381.25C300.922 383.162 306.227 384.155 311.581 384.18C316.104 384.231 320.589 383.343 324.751 381.57C325.371 381.3 325.951 380.98 326.541 380.67C326.852 383.446 326.478 386.256 325.451 388.854C324.424 391.451 322.776 393.758 320.651 395.57C319.943 396.201 319.367 396.964 318.955 397.817C318.543 398.67 318.303 399.596 318.249 400.542C318.194 401.487 318.327 402.435 318.639 403.329C318.95 404.224 319.435 405.048 320.066 405.755C320.696 406.462 321.459 407.039 322.312 407.451C323.165 407.863 324.091 408.103 325.037 408.157C325.983 408.211 326.93 408.079 327.825 407.767C328.719 407.455 329.544 406.971 330.251 406.34C343.551 394.47 342.101 378.65 338.511 369.15C339.788 366.995 340.863 364.725 341.721 362.37C342.379 360.575 342.298 358.591 341.496 356.855C340.694 355.119 339.235 353.772 337.441 353.11Z" fill="white"/>
<path d="M358.85 293.81C357.946 293.525 356.995 293.42 356.05 293.503C355.106 293.586 354.187 293.854 353.346 294.293C352.506 294.731 351.76 295.331 351.151 296.058C350.543 296.785 350.084 297.625 349.8 298.53L347.2 306.78C346.915 307.683 346.81 308.634 346.892 309.578C346.975 310.522 347.242 311.441 347.68 312.281C348.117 313.122 348.716 313.868 349.442 314.477C350.168 315.085 351.007 315.545 351.91 315.83C352.613 316.047 353.345 316.158 354.08 316.16C355.615 316.16 357.11 315.67 358.348 314.762C359.585 313.854 360.501 312.574 360.96 311.11L363.56 302.86C363.846 301.956 363.951 301.005 363.868 300.062C363.786 299.118 363.519 298.199 363.081 297.359C362.644 296.518 362.045 295.772 361.319 295.163C360.593 294.554 359.754 294.094 358.85 293.81Z" fill="white"/>
<path d="M264.38 423.3V480.48C264.45 482.347 265.24 484.115 266.586 485.411C267.931 486.707 269.727 487.432 271.595 487.432C273.463 487.432 275.259 486.707 276.604 485.411C277.95 484.115 278.74 482.347 278.81 480.48V423.3C278.846 422.33 278.686 421.363 278.34 420.456C277.994 419.549 277.468 418.721 276.794 418.022C276.121 417.323 275.313 416.767 274.42 416.387C273.527 416.007 272.566 415.812 271.595 415.812C270.624 415.812 269.663 416.007 268.77 416.387C267.877 416.767 267.069 417.323 266.396 418.022C265.722 418.721 265.196 419.549 264.85 420.456C264.504 421.363 264.344 422.33 264.38 423.3Z" fill="white"/>
<path d="M297.889 428.61C297.049 427.769 296.015 427.147 294.878 426.798C293.741 426.449 292.537 426.385 291.369 426.61C290.9 426.693 290.441 426.824 289.999 427C289.12 427.363 288.321 427.897 287.649 428.57C286.303 429.922 285.548 431.752 285.549 433.66C285.545 434.137 285.592 434.613 285.689 435.08C285.781 435.538 285.915 435.987 286.089 436.42C286.279 436.854 286.503 437.272 286.759 437.67C287.022 438.063 287.32 438.431 287.649 438.77C287.994 439.097 288.365 439.394 288.759 439.66C289.152 439.919 289.567 440.143 289.999 440.33C290.434 440.508 290.887 440.643 291.349 440.73C291.812 440.83 292.285 440.88 292.759 440.88C293.948 440.889 295.12 440.6 296.168 440.04C297.216 439.479 298.107 438.664 298.759 437.67C299.015 437.272 299.24 436.854 299.429 436.42C299.603 435.987 299.737 435.538 299.829 435.08C299.926 434.613 299.973 434.137 299.969 433.66C299.963 431.77 299.216 429.957 297.889 428.61Z" fill="white"/>
<path d="M299.85 455.24C299.758 454.782 299.624 454.334 299.45 453.9C299.261 453.466 299.037 453.048 298.78 452.65C298.52 452.256 298.222 451.887 297.89 451.55C297.556 451.216 297.188 450.917 296.79 450.66C296.395 450.4 295.976 450.176 295.54 449.99C293.77 449.275 291.791 449.275 290.02 449.99C289.589 450.178 289.174 450.402 288.78 450.66C288.382 450.92 288.01 451.218 287.67 451.55C287.342 451.89 287.044 452.258 286.78 452.65C286.524 453.048 286.3 453.466 286.11 453.9C285.937 454.334 285.803 454.782 285.71 455.24C285.614 455.708 285.568 456.184 285.57 456.66C285.567 457.134 285.614 457.607 285.71 458.07C285.803 458.528 285.937 458.977 286.11 459.41C286.3 459.847 286.524 460.269 286.78 460.67C287.044 461.06 287.342 461.425 287.67 461.76C288.01 462.096 288.382 462.398 288.78 462.66C289.174 462.916 289.589 463.136 290.02 463.32C290.456 463.502 290.908 463.64 291.37 463.73C291.834 463.827 292.307 463.874 292.78 463.87C293.967 463.876 295.137 463.587 296.185 463.028C297.232 462.47 298.124 461.659 298.78 460.67C299.037 460.269 299.261 459.847 299.45 459.41C299.624 458.977 299.758 458.528 299.85 458.07C299.947 457.607 299.994 457.134 299.99 456.66C299.993 456.184 299.947 455.708 299.85 455.24Z" fill="white"/>
<path d="M299.45 477C299.267 476.56 299.043 476.138 298.78 475.74C298.52 475.348 298.222 474.983 297.89 474.65C297.556 474.312 297.188 474.01 296.79 473.75C296 473.231 295.117 472.867 294.19 472.68C293.259 472.5 292.302 472.5 291.37 472.68C290.909 472.776 290.457 472.913 290.02 473.09C289.589 473.274 289.174 473.495 288.78 473.75C288.382 474.013 288.01 474.314 287.67 474.65C287.342 474.986 287.044 475.351 286.78 475.74C286.518 476.138 286.294 476.56 286.11 477C285.937 477.433 285.803 477.882 285.71 478.34C285.614 478.804 285.567 479.276 285.57 479.75C285.57 481.66 286.325 483.494 287.67 484.85C288.015 485.183 288.386 485.487 288.78 485.76C289.174 486.015 289.589 486.236 290.02 486.42C290.456 486.598 290.908 486.732 291.37 486.82C291.834 486.92 292.306 486.97 292.78 486.97C293.729 486.971 294.668 486.785 295.544 486.423C296.42 486.06 297.215 485.528 297.885 484.858C298.555 484.187 299.086 483.39 299.447 482.514C299.809 481.637 299.993 480.698 299.99 479.75C299.994 479.276 299.947 478.804 299.85 478.34C299.758 477.882 299.624 477.433 299.45 477Z" fill="white"/>
<path d="M379.51 301.64C376.73 303.64 373.8 307.12 372.44 313.02C371.445 317.566 371.617 322.289 372.94 326.75C375.674 336.517 377.08 346.608 377.12 356.75V413.44C377.113 414.931 376.773 416.402 376.124 417.745C375.475 419.088 374.534 420.268 373.37 421.2C370.55 423.49 366.93 427.25 365.52 432.31C364.989 434.187 365.022 436.179 365.615 438.037C366.209 439.895 367.336 441.537 368.857 442.759C370.378 443.98 372.226 444.726 374.168 444.904C376.111 445.083 378.063 444.685 379.78 443.76L380.13 443.56C382.291 442.364 384.826 442.035 387.22 442.64C387.73 442.77 388.28 442.89 388.85 442.99C390.637 443.3 392.475 443.112 394.162 442.447C395.849 441.782 397.321 440.665 398.415 439.219C399.51 437.774 400.186 436.054 400.368 434.25C400.551 432.446 400.233 430.626 399.45 428.99C397.962 426.06 395.925 423.443 393.45 421.28C392.42 420.348 391.595 419.211 391.029 417.942C390.462 416.673 390.167 415.3 390.16 413.91V337.26C390.179 332.876 391.206 328.555 393.16 324.63C395.94 318.96 398.6 309.63 391.08 302.53C389.523 301.121 387.541 300.269 385.447 300.108C383.353 299.947 381.265 300.486 379.51 301.64Z" fill="white"/>
<path d="M369.879 486.25C370.83 486.25 371.771 486.063 372.649 485.698C373.527 485.333 374.324 484.799 374.995 484.125C375.666 483.451 376.197 482.652 376.558 481.773C376.919 480.893 377.103 479.951 377.099 479V462C377.135 461.03 376.975 460.063 376.629 459.156C376.283 458.249 375.757 457.421 375.083 456.722C374.41 456.023 373.602 455.467 372.709 455.087C371.816 454.707 370.855 454.512 369.884 454.512C368.913 454.512 367.953 454.707 367.059 455.087C366.166 455.467 365.358 456.023 364.685 456.722C364.011 457.421 363.485 458.249 363.139 459.156C362.793 460.063 362.633 461.03 362.669 462V479C362.664 479.951 362.846 480.892 363.206 481.772C363.566 482.651 364.097 483.451 364.767 484.124C365.437 484.798 366.233 485.333 367.111 485.698C367.988 486.063 368.929 486.25 369.879 486.25Z" fill="white"/>
<path d="M385.76 458.33V479C385.76 480.912 386.519 482.746 387.872 484.098C389.224 485.45 391.058 486.21 392.97 486.21C394.882 486.21 396.716 485.45 398.068 484.098C399.42 482.746 400.18 480.912 400.18 479V458.3C400.18 456.388 399.42 454.554 398.068 453.202C396.716 451.849 394.882 451.09 392.97 451.09C391.058 451.09 389.224 451.849 387.872 453.202C386.519 454.554 385.76 456.388 385.76 458.3V458.33Z" fill="white"/>
</g>
<defs>
<clipPath id="clip0_20906_100572">
<rect width="512" height="485" fill="white"/>
</clipPath>
</defs>
</svg>
